
<global>
ampeg_release=0.25
</global>

<group>
amp_veltrack=0
ampeg_attack=0.02
ampeg_release=0.45
group_label=0-90
lpc_hicc1=90
lpc_locc1=0

<region>
hikey=F5
hivel=127
lokey=E5
lovel=0
lpc=wQYpQRwPqsHNB5JBl6j7wAsqdECQk9m/x9vhP0HSFsDpgjtACx/1vv8F7b//fWtAHbQxv46pLcC8om9A+eEbv5b7cL96iy/AswenQKl4ib9A98K/jGMDPxsVh76lCS8/
lpc_rms=-12.77
offset=35629
pitch_keycenter=F5
sample=Clarinet_glissup_MF_A#3.opus
</region>

<region>
hikey=G6
hivel=127
lokey=F#5
lovel=0
lpc=aJBGQVAjw8El4Z5BHXaZwBn8L8Cogo5APbSnv0Fjrj6fWzE/C7uTP/BKy73Dv/8//18DwJlSZT5wGqxAngEZwcacHEG2wA/AEMWLwJFI8UCWQZLAnW2sP9xNJr+8NYM/
lpc_rms=-14.75
offset=46579
pitch_keycenter=G5
sample=Clarinet_glissup_MF_C4.opus
</region>

<region>
hikey=A4
hivel=127
lokey=G4
lovel=0
lpc=psFPQS+n8sHruOhBUNNJwVD7jz+ZRolArcOMwOTaiD7T1HlAKoNiwNmCg0C+MBDAE5fcvyGfLkCyAyS/Bk4TQPHdgsAefIdAjyEqwB8bkL+jJMhA/SuTwJ33ZT5AHWA/
lpc_rms=-15.24
offset=41988
pitch_keycenter=A4
sample=Clarinet_glissup_MF_D3.opus
</region>

<region>
hikey=B4
hivel=127
lokey=A#4
lovel=0
lpc=CGZEQTBG1cERVtRBvZRWwUo4g0B7hmM/4yWaPpMi57+Yl5ZAdu9twGHdH0A21aA/Nlu1v6WwHj/ZJhZA6ecbvtCLJ8CdLIxAvNTJvyMlpD92D32+sLvPP4F8ccBlqUpA
lpc_rms=-15.90
offset=25119
pitch_keycenter=A#4
sample=Clarinet_glissup_MF_E3.opus
</region>

<region>
hikey=C#5
hivel=127
lokey=C5
lovel=0
lpc=2e5YQZUQA8Ji3vxB8rhQweZ7rkDaSOrAQCDoQHBYuMBg3txAEWRJwP1q5r/Zn8E/nc+0P3oMmb7gVc8/miSTwJQYiUDxwYG/tbAMPzl9V7/0Ac8/tOprwFtagUATGcW/
lpc_rms=-18.21
offset=48182
pitch_keycenter=C#5
sample=Clarinet_glissup_MF_F#3.opus
</region>

<region>
hikey=D#5
hivel=127
lokey=D5
lovel=0
lpc=pxaHQaWuF8IplA9CGmp7wQVyr0AcKUPAuHlPQCw7PcBiTF9A30iIvx9Ci78iXZRAQnOKwBa9Lz/Ggtc/YyMBQAlhf8ATsXdAFd5Gwb3JvUHVN6rB7U0eQZ3HQsD3lC8/
lpc_rms=-13.58
offset=52682
pitch_keycenter=D#5
sample=Clarinet_glissup_MF_G#3.opus
</region>
</group>

<group>
amp_veltrack=0
ampeg_attack=0.02
ampeg_release=0.45
group_label=91-127
lpc_hicc1=127
lpc_locc1=91

<region>
hikey=F5
hivel=127
lokey=E5
lovel=0
lpc=mSY3QcPVvME67KhBBOsnwWLoskBnXETA5+gPQHMiC8BT0xFAx5pAv5vsiT1bIMs/YJwEv5OBCMDFNZtAS3RbwEXj6z+DmaHA6rQAQd0+osA7NzRAWc4SwDOyWz99ZUs/
lpc_rms=-12.06
offset=44307
pitch_keycenter=F5
sample=Clarinet_glissup_FF_A#3.opus
</region>

<region>
hikey=G6
hivel=127
lokey=F#5
lovel=0
lpc=Sfg0QSq1o8HCsIRBKiiOwI7PDMDuaVtAydDNP7DgZ8C5/U1A1BEuPiSGpb/0uT1Av1scv0zLmD3GekNAAVP0wDZ83kANhcM/S6KRwFqrZUCifyy/sdFqPoN1z75d/a4/
lpc_rms=-14.89
offset=40627
pitch_keycenter=G5
sample=Clarinet_glissup_FF_C4.opus
</region>

<region>
hikey=A4
hivel=127
lokey=G4
lovel=0
lpc=fKxjQeBVCMIDbvBBVoLUwIt8E8GKfTJB+TwhwAISEMGF4i5BtzKQvjWLA8FtR9JAwmsowBaxhT+OUBU/mF6Pv7ctlz4pFkk+4LwiPpuRdj8xzse/jZF0v7f8YkDAMwfA
lpc_rms=-15.79
offset=28843
pitch_keycenter=A4
sample=Clarinet_glissup_FF_D3.opus
</region>

<region>
hikey=B4
hivel=127
lokey=A#4
lovel=0
lpc=YWlFQcD76cFplt5ByNg3wYZ6Xj69D15A/iCsv+RpuMCYBjZBWmvewJp0hT8ed7++w8oHPw3kdD/cn5M+9eE2vshcC8Ai0c0+pqiXQArYMsCcfzrA0+izQFSYpMBjgw5A
lpc_rms=-16.07
offset=55627
pitch_keycenter=A#4
sample=Clarinet_glissup_FF_E3.opus
</region>

<region>
hikey=C#5
hivel=127
lokey=C5
lovel=0
lpc=TjQ4QQo71cG1DtFB9dlAwYc5S0CU3gTAab+vQOBJ4MB85b1AV8UcwIWtRD0ZdYK+csmDQKWvoMD2AklA2bl2v5N+BT9EGmK/6BJVQOOqm8AUOMNA/SEPwfIfA0HlADvA
lpc_rms=-16.19
offset=43577
pitch_keycenter=C#5
sample=Clarinet_glissup_FF_F#3.opus
</region>

<region>
hikey=D#5
hivel=127
lokey=D5
lovel=0
lpc=ektpQZ/oBsJ9vPpBlScuwY6v7T7K2CDAyf28QHEfqMAVR9FAbMegwKS/Er+/3sFAyglqwFmtqr8vb2RA53bvv99Buz8F5sq/dD5WQPgCscAR9XhA7IIhQHdwvMA6tkhA
lpc_rms=-17.08
offset=40732
pitch_keycenter=D#5
sample=Clarinet_glissup_FF_G#3.opus
</region>
</group>